# xmcd
#
# Track frame offsets:
#	150
#	12555
#	25628
#	35913
#	47403
#	62878
#	74408
#	85228
#	97553
#	110093
#
# Disc length: 1647 seconds
#
# Revision: 1
# Processed by: cddbd v1.5.1PL2 Copyright (c) Steve Scherf et al.
# Submitted via: audiograbber 1.83.01
#
DISCID=7e066d0a
DTITLE=Various Artist - Greatest Country Love Songs
DYEAR=1993
DGENRE=Country
TTITLE0=Reba McEntire - (You Lift Me) Up To Heaven
TTITLE1=Hamk Williams, Jr. - Rainin' In My Heart
TTITLE2=George Jones - Walk Through This World With Me
TTITLE3=Dolly Parton - Making Believe
TTITLE4=For The Good Times - Kenny Rogers
TTITLE5=Sammi Smith - Help Me Make It Through The Night
TTITLE6=Charlie Rich - Unchained Melody
TTITLE7=Willie Nelson - I Still Can't Believe You're Gone
TTITLE8=Hank Williams - I'm So Lonesome I Could Cry
TTITLE9=Conway Twitty - You've Never Been This Far Before
EXTD=
EXTT0=
EXTT1=
EXTT2=
EXTT3=
EXTT4=
EXTT5=
EXTT6=
EXTT7=
EXTT8=
EXTT9=
PLAYORDER=
